<?xml version="1.0" standalone="no"?><!DOCTYPE svg PUBLIC "-//W3C//DTD SVG 1.1//EN" "http://www.w3.org/Graphics/SVG/1.1/DTD/svg11.dtd"><svg class="icon" height="512" viewBox="0 0 1024 1024" version="1.1" xmlns="http://www.w3.org/2000/svg"><path d="M716.9016 539.079864c-28.728034 0-56.049068-5.330383-81.038445-14.973101-125.818176 73.759198-205.586113 163.274532-235.016107 199.633818 6.301223 14.355294 9.824366 30.054985 9.824366 46.480241 0 68.250247-59.226362 123.521411-132.175843 123.521411-73.046975 0-132.200473-55.271165-132.200473-123.521411 0-68.170198 59.152471-123.507043 132.200473-123.507043 13.224358 0 26.057711 1.874973 38.084426 5.271886 39.013189-33.5145 138.02346-124.415282 204.046727-233.091874-11.356568-24.479327-17.81173-51.444249-17.81173-79.810014 0-110.423283 95.834003-200.059715 214.097895-200.059715 10.193818 0 20.175201 0.966735 29.985199 2.241347L583.410094 304.775979l49.130038 128.119046 143.336396 24.304863 151.781471-151.753762c2.014544 10.906041 3.270684 22.11996 3.270684 33.636625-0.007184 110.426362-95.829898 199.997114-214.034267 199.997114l0 0L716.9016 539.079864zM278.555093 704.595743c-38.901327 0-70.338681 29.390996-70.338681 65.629184 0 36.314131 31.444538 65.705127 70.338681 65.705127 38.767913 0 70.234003-29.390996 70.234003-65.705127C348.78807 733.986739 317.323007 704.595743 278.555093 704.595743L278.555093 704.595743 278.555093 704.595743zM476.436063 433.083856l-60.015554 56.003913L291.206799 369.147998l-29.963648 28.057887L93.070291 240.180237l120.092684-112.17921 168.102049 157.025648-30.058064 28.065071L476.436063 433.09104 476.436063 433.083856zM864.774055 827.861616l-48.023732 44.90904c-33.19636 30.969381-86.893245 30.969381-120.082421 0 0 0-192.406911-187.756937-189.642173-181.148863 70.805628-115.023997 173.779306-141.151493 173.779306-141.151493L864.774055 715.742954C897.948863 746.648707 897.948863 796.889156 864.774055 827.861616L864.774055 827.861616 864.774055 827.861616zM579.216805 669.440257c-8.308583 7.753377-8.308583 20.426635 0 28.180012l154.389192 144.174849c8.305504 7.827268 21.833634 7.827268 30.149401 0 8.308583-7.817005 8.308583-20.426635 0-28.124594L609.366206 669.437178c-8.315767-7.8129-21.812083-7.8129-30.149401 0l0 0L579.216805 669.440257zM831.633113 750.17185 677.344494 605.992896c-8.371185-7.827268-21.906498-7.827268-30.215081 0-8.312688 7.820084-8.312688 20.415346 0 28.120489l154.393297 144.240529c8.305504 7.753377 21.804899 7.753377 30.110403 0 8.336292-7.823163 8.336292-20.429713 0-28.180012l0 0L831.633113 750.17185zM831.633113 750.17185" /></svg>